<svg width="86" height="26" viewBox="0 0 86 26" fill="none" xmlns="http://www.w3.org/2000/svg">
<path fill-rule="evenodd" clip-rule="evenodd" d="M10.8921 20.1219C11.8603 20.1219 12.6671 19.9359 13.3395 19.5372C14.0118 19.1384 14.5497 18.6068 14.9531 17.9423C15.3834 17.2778 15.6524 16.5335 15.8406 15.6829C16.002 14.8057 16.0827 13.9551 16.0827 13.0514V5.31625L21.7574 8.45282V13.0514C21.7574 14.7526 21.5422 16.3208 21.1119 17.7828C20.7085 19.2182 20.0361 20.4941 19.1486 21.5839C18.2611 22.6737 17.1316 23.5509 15.76 24.1623C14.3884 24.8002 12.7747 25.1192 10.8921 25.1192C8.92885 25.1192 7.26142 24.7736 5.86292 24.1091C4.49132 23.4712 3.36177 22.5674 2.50115 21.4776C1.64054 20.3612 0.995083 19.0853 0.591671 17.6233C0.188259 16.1879 0 14.6462 0 13.0514V7.4959L5.67466 10.6325V13.0514C5.67466 13.9817 5.75535 14.8855 5.9436 15.7095C6.13186 16.5601 6.4277 17.3043 6.83111 17.9689C7.26142 18.6334 7.7993 19.165 8.44476 19.5372C9.09022 19.9359 9.92394 20.1219 10.8921 20.1219ZM0 3.37583V0.664551H5.67466V6.53898L0 3.37583ZM16.0827 1.19617V0.664551H21.7574V4.33275L16.0827 1.19617Z" fill="#050794"/>
<path d="M37.6744 24.0823C36.8945 24.4013 36.0339 24.7202 35.0388 24.986C34.0437 25.2518 33.0755 25.3848 32.0805 25.3848C31.3812 25.3848 30.7358 25.305 30.1172 25.1455C29.4986 24.9595 28.9607 24.6936 28.5035 24.3215C28.0194 23.9228 27.6698 23.4443 27.4009 22.833C27.1319 22.195 26.9975 21.4507 26.9975 20.6001V11.1904H24.6846V7.04377H26.9975V1.30225H32.5646V7.04377H36.2759V11.1904H32.5646V18.7129C32.5646 19.2977 32.699 19.723 33.0218 19.9888C33.3176 20.2546 33.6941 20.3875 34.1513 20.3875C34.5816 20.3875 35.0119 20.3078 35.4422 20.1749C35.8725 20.0419 36.249 19.8825 36.5718 19.723L37.6744 24.0823Z" fill="#050794"/>
<path d="M39.8325 25.0394V7.044H45.3727V25.0394H39.8325ZM39.8325 4.97067V0H45.3727V4.97067H39.8325Z" fill="#050794"/>
<path d="M53.9268 25.0394L47.4722 7.04395H53.2006L57.181 20.6535L61.2151 7.04395H66.4056L59.9779 25.0394H53.9268Z" fill="#050794"/>
<path d="M73.6824 25.3853C72.768 25.3853 71.9343 25.2524 71.1544 24.96C70.4013 24.6676 69.729 24.2689 69.1642 23.7638C68.5994 23.2588 68.1691 22.6474 67.8464 21.9563C67.5237 21.2386 67.3623 20.4943 67.3623 19.6703C67.3623 18.7666 67.5506 17.9691 67.9271 17.2249C68.3036 16.5072 68.8415 15.8692 69.5407 15.3376C70.24 14.806 71.0737 14.4073 72.015 14.1149C72.9563 13.7959 74.0052 13.663 75.1616 13.663C75.9415 13.663 76.6677 13.7161 77.3938 13.8491C78.12 13.982 78.7385 14.168 79.2764 14.4073V13.5832C79.2764 11.5099 78.0662 10.4733 75.6188 10.4733C74.6237 10.4733 73.6824 10.6327 72.768 10.9517C71.8805 11.2973 70.9123 11.8023 69.9172 12.4668L68.3036 9.03787C69.5138 8.24044 70.751 7.65565 72.0419 7.28352C73.3328 6.8848 74.7313 6.69873 76.1836 6.69873C78.9268 6.69873 81.0514 7.33668 82.5575 8.61257C84.0636 9.88847 84.8166 11.7757 84.8166 14.2478V18.8729C84.8166 19.4311 84.9242 19.8032 85.0855 20.0159C85.2469 20.2285 85.5696 20.3614 85.9999 20.4146V25.0397C85.5158 25.1726 85.0855 25.2524 84.6821 25.2789C84.3056 25.3055 83.9291 25.3321 83.6064 25.3321C82.5575 25.3321 81.7776 25.1195 81.2397 24.7207C80.7287 24.322 80.3791 23.7638 80.2446 23.0195L80.137 22.1955C79.3302 23.2322 78.362 24.0296 77.2325 24.5613C76.1298 25.1195 74.9196 25.3853 73.6824 25.3853ZM75.323 21.4513C75.9146 21.4513 76.5063 21.3449 77.0711 21.1323C77.6359 20.9462 78.0931 20.6538 78.4696 20.3083C79.0075 19.9096 79.2764 19.4577 79.2764 19.0058V17.3046C78.7923 17.1185 78.2544 16.959 77.6897 16.8793C77.1249 16.773 76.587 16.7198 76.1029 16.7198C75.0809 16.7198 74.2472 16.9325 73.6017 17.4109C72.9294 17.8628 72.6067 18.4476 72.6067 19.1919C72.6067 19.8564 72.8487 20.388 73.3597 20.8133C73.8707 21.2386 74.5161 21.4513 75.323 21.4513Z" fill="#050794"/>
</svg>
